<svg width="512" height="512" viewBox="0 0 512 512" fill="none" xmlns="http://www.w3.org/2000/svg">
  <path fill-rule="evenodd" clip-rule="evenodd" d="M256 60C148 60 80 140 80 240V400C80 400 110 370 140 400C170 430 200 400 230 400C260 430 290 400 320 400C350 430 380 400 410 400C440 430 432 400 432 400V240C432 140 364 60 256 60ZM200 208C217.673 208 232 222.327 232 240C232 257.673 217.673 272 200 272C182.327 272 168 257.673 168 240C168 222.327 182.327 208 200 208ZM312 208C329.673 208 344 222.327 344 240C344 257.673 329.673 272 312 272C294.327 272 280 257.673 280 240C280 222.327 294.327 208 312 208Z" fill="white" fill-opacity="0.96"/>
</svg>
